<?xml version="1.0" encoding="UTF-8"?>
<!DOCTYPE svg PUBLIC "-//W3C//DTD SVG 1.1//EN" "http://www.w3.org/Graphics/SVG/1.1/DTD/svg11.dtd">
<!-- Creator: CorelDRAW X7 -->
<svg xmlns="http://www.w3.org/2000/svg" xml:space="preserve" width="41.9985mm" height="164.373mm" version="1.1" style="shape-rendering:geometricPrecision; text-rendering:geometricPrecision; image-rendering:optimizeQuality; fill-rule:evenodd; clip-rule:evenodd"
viewBox="0 0 622 2434"
 xmlns:xlink="http://www.w3.org/1999/xlink">
 <defs>
  <style type="text/css">
   <![CDATA[
    .fil0 {fill:#999}
   ]]>
  </style>
 </defs>
 <g id="Слой_x0020_1">
  <metadata id="CorelCorpID_0Corel-Layer"/>
  <path class="fil0" d="M159 930c-5,1 -10,6 -10,12 0,0 0,0 0,1l0 485c0,23 12,42 26,54 15,13 33,20 49,20l186 0c35,0 63,-28 63,-62l0 -386c0,-34 -28,-62 -63,-62l-199 0 0 -49c0,-7 -5,-13 -12,-13l-37 0c0,0 -1,0 -1,0 0,0 0,0 0,0 -1,0 -1,0 -1,0 0,0 0,0 -1,0l0 0zm15 25l13 0 0 50c0,7 5,12 12,12l211 0c21,0 38,17 38,37l0 386c0,21 -17,37 -38,37l-186 0c-9,0 -22,-4 -32,-13 -11,-9 -18,-21 -18,-36l0 -473zm62 99c-20,0 -37,17 -37,38l0 99c0,21 17,38 37,38l150 0c20,0 37,-17 37,-38l0 -99c0,-21 -17,-38 -37,-38l-150 0zm0 25l150 0c6,0 12,6 12,13l0 99c0,7 -6,13 -12,13l-150 0c-7,0 -12,-6 -12,-13l0 -99c0,-7 5,-13 12,-13zm0 174c-13,0 -25,12 -25,25 0,14 12,25 25,25 14,0 25,-11 25,-25 0,-13 -11,-25 -25,-25zm75 0c-14,0 -25,12 -25,25 0,14 11,25 25,25 14,0 25,-11 25,-25 0,-13 -11,-25 -25,-25zm75 0c-14,0 -25,12 -25,25 0,14 11,25 25,25 13,0 24,-11 24,-25 0,-13 -11,-25 -24,-25zm-150 75c-13,0 -25,11 -25,25 0,14 12,25 25,25 14,0 25,-11 25,-25 0,-14 -11,-25 -25,-25zm75 0c-14,0 -25,11 -25,25 0,14 11,25 25,25 14,0 25,-11 25,-25 0,-14 -11,-25 -25,-25zm75 0c-14,0 -25,11 -25,25 0,14 11,25 25,25 13,0 24,-11 24,-25 0,-14 -11,-25 -24,-25zm-150 75c-13,0 -25,11 -25,25 0,13 12,24 25,24 14,0 25,-11 25,-24 0,-14 -11,-25 -25,-25zm75 0c-14,0 -25,11 -25,25 0,13 11,24 25,24 14,0 25,-11 25,-24 0,-14 -11,-25 -25,-25zm75 0c-14,0 -25,11 -25,25 0,13 11,24 25,24 13,0 24,-11 24,-24 0,-14 -11,-25 -24,-25z"/>
  <path class="fil0" d="M348 0c-67,0 -121,53 -124,120l-62 28 -144 -72c-2,-1 -4,-1 -6,-1 0,0 -1,0 -1,0 -6,0 -11,6 -11,12 0,0 0,0 0,0l0 448c0,0 0,0 0,0 0,5 3,9 7,11l149 75c2,1 4,1 6,1 2,0 3,0 5,-1l144 -73 157 73c1,0 3,1 5,1 2,0 4,-1 5,-2l137 -74c4,-2 7,-7 7,-11l0 -448c0,-7 -6,-12 -13,-12 -2,0 -4,0 -5,1l-133 72c1,-8 2,-16 2,-24 0,-68 -56,-124 -125,-124zm0 25c55,0 100,44 100,99 0,47 -27,104 -54,150 -23,38 -39,56 -46,65 -7,-8 -22,-26 -45,-64 -26,-43 -51,-97 -54,-143 1,-2 1,-3 1,-5 0,-1 0,-3 -1,-5 1,-54 45,-97 99,-97zm0 50c-34,0 -62,28 -62,62 0,34 28,62 62,62 34,0 62,-28 62,-62 0,-34 -28,-62 -62,-62zm0 25c21,0 38,16 38,37 0,21 -17,37 -38,37 -20,0 -37,-16 -37,-37 0,-21 17,-37 37,-37zm-323 7l131 66c2,1 4,1 6,1 1,0 3,0 5,-1l58 -26c6,49 32,100 57,141 28,47 57,81 57,81 2,3 6,4 9,4 4,0 8,-2 10,-5 0,0 28,-34 57,-81 20,-34 40,-74 51,-114l5 1c1,0 1,0 1,0 2,0 5,0 6,-1l119 -65 0 419 -125 68 -156 -71c-2,-1 -3,-2 -5,-2 -2,0 -4,1 -5,2l-144 71 -137 -68 0 -420z" color="#000" enable-background="accumulate"/>
  <path class="fil0" d="M585 2275l-19 0c-2,0 -4,1 -5,3 -12,18 -27,35 -44,50 -16,16 -35,30 -55,41 -20,12 -42,21 -64,27 -23,7 -47,10 -71,10 -37,0 -73,-6 -106,-18 -34,-12 -63,-29 -88,-53 -25,-23 -46,-52 -60,-87 -15,-34 -23,-75 -23,-121 0,-38 8,-74 21,-107 14,-33 34,-62 59,-87 24,-24 54,-44 87,-58 34,-14 71,-22 110,-22 35,0 67,6 97,17 30,11 56,27 78,46 22,20 39,44 51,72 12,27 18,58 18,91 0,30 -5,57 -15,83 -10,25 -23,47 -38,66 -15,18 -32,33 -50,43 -18,11 -35,16 -51,16 -9,0 -16,-2 -20,-6 -5,-3 -7,-8 -8,-15 -1,-7 0,-15 2,-25 3,-11 7,-22 12,-34l91 -238c1,-2 1,-4 0,-6 -2,-1 -3,-2 -5,-2l-18 0c-2,0 -5,1 -6,4l-15 41c-8,-17 -21,-31 -39,-41 -22,-13 -47,-20 -74,-20 -31,0 -59,8 -84,24 -25,15 -46,35 -64,60 -17,24 -30,50 -40,78 -10,29 -14,57 -14,83 0,17 3,34 9,49 6,15 14,29 24,40 11,11 24,20 38,27 32,14 70,12 108,-1 17,-6 33,-16 46,-31 2,10 6,18 13,26 11,10 25,16 43,16 21,0 42,-6 64,-19 22,-12 42,-30 60,-51 18,-21 32,-46 43,-75 12,-28 17,-59 17,-92 0,-38 -7,-74 -21,-105 -15,-32 -34,-59 -59,-81 -25,-22 -54,-39 -87,-51 -33,-12 -69,-17 -106,-17 -42,0 -81,7 -118,22 -37,15 -70,37 -98,64 -27,26 -49,59 -65,95 -16,37 -25,78 -25,121 0,53 9,100 27,138 18,39 41,71 70,96 28,25 61,44 98,55 36,12 73,18 111,18 25,0 51,-4 77,-11 25,-7 50,-17 73,-29 23,-13 44,-29 64,-48 19,-18 36,-39 49,-61 2,-2 2,-4 1,-6 -2,-2 -4,-4 -6,-4zm-149 -233l-58 150c-8,19 -16,35 -26,47 -10,13 -20,23 -30,30 -11,7 -22,11 -33,14 -25,6 -50,5 -70,-3 -11,-5 -21,-12 -29,-21 -8,-9 -15,-19 -19,-30 -5,-12 -7,-25 -7,-39 0,-22 4,-46 12,-72 8,-25 20,-48 35,-70 15,-21 33,-39 54,-53 21,-14 44,-21 68,-21 10,0 21,1 32,4 10,2 20,6 30,11 9,6 18,13 25,22 7,8 12,18 16,31z"/>
 </g>
</svg>
