<?xml version="1.0" encoding="UTF-8"?>
<!DOCTYPE svg PUBLIC "-//W3C//DTD SVG 1.1//EN" "http://www.w3.org/Graphics/SVG/1.1/DTD/svg11.dtd">
<!-- Creator: CorelDRAW X7 -->
<svg xmlns="http://www.w3.org/2000/svg" xml:space="preserve" width="67.8378mm" height="217.954mm" version="1.1" style="shape-rendering:geometricPrecision; text-rendering:geometricPrecision; image-rendering:optimizeQuality; fill-rule:evenodd; clip-rule:evenodd"
viewBox="0 0 2370 7614"
 xmlns:xlink="http://www.w3.org/1999/xlink">
 <defs>
  <style type="text/css">
   <![CDATA[
    .fil0 {fill:black}
   ]]>
  </style>
 </defs>
 <g id="Слой_x0020_1">
  <metadata id="CorelCorpID_0Corel-Layer"/>
  <path class="fil0" d="M1185 5528c-574,0 -1043,470 -1043,1043 0,574 469,1043 1043,1043 573,0 1043,-469 1043,-1043 0,-204 -58,-388 -157,-549l-66 75c81,142 128,303 128,474 0,521 -427,948 -948,948 -521,0 -948,-427 -948,-948 0,-521 427,-948 948,-948 246,0 469,96 640,252l62 -71c-185,-171 -432,-276 -702,-276zm865 226l-917 1081 -385 -360 -65 69 422 393 37 34 31 -37 948 -1120 -71 -60z" color="#000" enable-background="accumulate"/>
  <path class="fil0" d="M877 3030c-196,0 -356,160 -356,355 0,55 13,108 36,154l84 -41c-16,-34 -25,-72 -25,-113 0,-144 116,-260 261,-260 144,0 260,116 260,260l95 0c0,-195 -160,-355 -355,-355zm886 207c-2,1 -4,1 -6,2 -1,0 -2,1 -3,1 -121,30 -258,102 -345,265 -84,-17 -169,-31 -260,-31 -269,0 -478,84 -642,212 -84,65 -150,155 -192,265 -14,-5 -34,-13 -56,-28 -37,-25 -69,-60 -69,-124 0,-51 24,-94 63,-111 19,-7 31,-25 31,-45 0,-26 -21,-47 -47,-47 -1,0 -2,0 -3,0 -6,0 -12,2 -18,4 -78,34 -121,116 -121,199 0,99 58,166 111,203 33,22 61,33 81,40 -16,70 -22,147 -19,231 9,211 152,365 259,451 1,0 1,0 1,0 0,0 1,0 1,0 9,8 12,12 13,14 1,1 3,-2 -1,11 -15,44 -42,110 -42,110 0,0 0,1 0,1 0,0 0,0 0,1 -25,66 8,140 74,165 0,1 0,1 0,1 0,0 0,1 0,1l153 56c66,25 142,-8 167,-74 0,0 19,-53 36,-98 2,-6 4,-8 6,-10 2,0 2,1 6,2 30,5 97,25 208,25 114,0 180,-12 211,-14 6,0 8,0 10,0 1,2 1,3 2,5 0,0 -1,1 0,1 15,46 33,88 34,89 0,1 1,1 1,2 26,64 99,97 164,72l153 -56c0,0 0,-1 0,-1 0,0 0,0 0,-1 66,-25 99,-99 74,-165l-24 -64c-1,-3 -2,-5 -4,-8 0,0 1,0 1,0 0,1 -6,3 9,-5 115,-63 204,-159 259,-276 6,-11 10,-19 14,-22 4,-4 6,-6 21,-6l77 0c68,0 124,-56 124,-124l0 -232c0,-68 -56,-124 -124,-124l-77 0c-12,0 -16,-1 -17,-1 -23,-137 -115,-308 -318,-394 2,-98 24,-175 71,-303 2,-5 3,-11 3,-17 0,-27 -21,-48 -47,-48 -1,0 -2,0 -3,0l0 0zm-75 134c-28,89 -49,169 -47,262 0,20 13,38 33,44 198,69 271,224 290,342 7,46 55,76 110,76l77 0c16,0 29,13 29,29l0 232c0,16 -13,29 -29,29l-77 0c-35,0 -67,13 -86,31 -20,18 -29,38 -34,51 -48,100 -121,179 -218,232 -38,21 -58,59 -59,88 -1,24 7,37 10,42l-1 0 2 8 21 58c7,17 -1,37 -19,44l-153 58c-18,7 -37,-3 -44,-21 0,0 0,0 0,-1 0,0 0,0 0,0 0,0 -19,-43 -33,-85 -7,-20 -17,-43 -40,-58 -23,-14 -45,-13 -66,-11 -42,2 -97,13 -205,13 -101,0 -152,-16 -192,-24 -21,-3 -46,-7 -71,8 -26,14 -36,38 -45,62 -16,44 -37,96 -37,96 -7,18 -26,28 -44,21l-153 -58c-18,-7 -26,-26 -19,-44 1,-2 27,-66 43,-116 11,-34 6,-68 -7,-90 -14,-23 -33,-35 -37,-39 -96,-76 -217,-213 -224,-382 -10,-240 72,-407 201,-508 150,-116 335,-191 585,-191 96,0 186,12 271,33 4,1 8,1 12,1 19,0 36,-11 43,-28 53,-117 132,-169 213,-204zm40 632c-50,0 -90,40 -90,90 0,50 40,92 90,92 50,0 91,-42 91,-92 0,-50 -41,-90 -91,-90z" color="#000" enable-background="accumulate"/>
  <path class="fil0" d="M1182 0c-126,2 -214,56 -250,139 -34,76 -26,166 -5,258 -12,19 -21,42 -18,73 5,34 14,59 30,79 6,8 16,9 24,14 5,26 11,53 22,74 7,14 14,26 22,37 2,2 6,4 8,6 0,26 -1,50 -3,77 -6,12 -17,24 -42,38 -27,15 -64,31 -104,51 -65,32 -137,86 -174,176 -16,-10 -41,-21 -45,-30 -2,-26 -3,-49 -3,-75 2,-2 6,-4 8,-6 8,-11 15,-23 22,-37 11,-21 17,-48 22,-74 8,-5 18,-6 24,-14 16,-20 25,-45 29,-80 4,-30 -5,-53 -17,-72 21,-92 28,-182 -5,-258 -36,-83 -124,-138 -250,-141 -54,0 -102,17 -136,51 -47,9 -85,31 -108,64 -26,35 -36,76 -39,115 -5,67 8,129 21,172 -12,18 -20,41 -17,69 5,35 14,60 30,80 6,8 15,9 22,14 6,25 12,51 23,72 6,14 14,28 22,39 1,2 5,4 7,6 0,26 -1,50 -3,77 -6,15 -17,28 -40,41 -24,15 -60,29 -96,48 -73,38 -155,106 -163,240 0,0 0,1 0,1 0,1 0,1 0,2l0 521c0,3 1,6 2,9 0,0 20,98 112,207 92,109 255,233 538,302 4,1 8,2 12,2 26,0 47,-21 47,-48 0,0 0,0 0,0l0 -43 0 -3c4,-51 20,-84 46,-111 26,-27 63,-48 105,-66 42,-19 87,-34 129,-55 41,-21 84,-51 102,-101 2,-4 3,-8 3,-12 4,-48 2,-81 2,-121 0,0 0,-1 0,-1 0,-18 -10,-34 -26,-42 8,4 3,1 -1,-4 -5,-6 -10,-15 -15,-26 -11,-21 -20,-49 -22,-69 -2,-21 -18,-38 -39,-42 0,0 0,-1 0,-1 -2,-3 -9,-13 -12,-37 -1,-8 2,-12 3,-14 13,-8 20,-23 20,-38 0,-4 -1,-8 -2,-12 -26,-99 -27,-188 -3,-244 25,-56 70,-91 181,-94 1,0 1,0 1,0 52,1 82,17 86,26 7,12 20,21 34,23 35,5 53,17 66,34 12,18 19,45 22,76 5,62 -14,141 -25,176 -2,5 -3,10 -3,15 0,15 8,30 20,38 1,2 3,6 2,14 -3,25 -8,36 -11,38 -20,4 -36,21 -38,42 -2,21 -10,48 -21,69 -5,11 -10,21 -15,27 -2,3 -5,5 -6,6 -12,9 -20,23 -20,39 0,0 0,1 0,1 0,40 -3,73 1,121 1,4 2,8 3,12 19,50 61,80 102,101 42,21 86,36 128,55 41,18 79,39 105,66 25,27 42,60 46,111l0 3 0 43c0,0 0,0 0,0 0,27 21,48 47,48 4,0 8,-1 12,-2 282,-69 446,-193 538,-302 92,-109 112,-207 112,-207 1,-3 2,-6 2,-9l0 -521c0,-1 0,-1 0,-2 0,0 0,-1 0,-1 -8,-134 -90,-202 -163,-240 -37,-19 -72,-33 -96,-48 -23,-13 -34,-26 -40,-41 -2,-27 -4,-51 -3,-77 1,-2 5,-4 7,-6 8,-11 15,-25 22,-39 11,-21 17,-47 22,-72 8,-5 17,-6 23,-14 15,-20 25,-45 29,-80 4,-28 -5,-51 -16,-69 13,-43 26,-105 21,-172 -3,-39 -13,-80 -39,-115 -23,-33 -62,-55 -108,-64 -34,-34 -82,-51 -136,-51 -126,3 -214,58 -250,141 -34,76 -26,166 -5,258 -13,19 -21,42 -18,72 4,35 14,60 30,80 6,8 16,9 24,14 5,26 11,53 22,74 7,14 14,26 22,37 2,2 6,4 7,6 1,26 -1,49 -2,75 -5,9 -29,20 -45,30 -38,-90 -108,-144 -173,-176 -40,-20 -77,-36 -104,-51 -25,-14 -36,-26 -41,-38 -2,-27 -4,-51 -3,-77 1,-2 5,-4 7,-6 8,-11 16,-25 22,-39 11,-21 17,-47 23,-72 7,-5 16,-6 22,-14 15,-20 25,-45 29,-79 4,-29 -4,-52 -16,-70 13,-43 26,-105 21,-172 -3,-39 -13,-80 -39,-115 -23,-33 -62,-55 -108,-64 -34,-34 -83,-49 -136,-49zm0 95c1,0 1,0 1,0 48,0 73,14 76,19 7,13 21,22 35,24 31,4 44,15 55,31 12,15 20,38 23,66 4,57 -14,129 -24,160 -2,5 -2,10 -2,15 0,14 6,28 18,37 1,1 2,4 2,11 -3,21 -9,30 -11,32 -19,6 -32,22 -34,42 -2,18 -11,42 -21,62 -4,10 -9,18 -13,24 -4,5 -8,7 0,3 -15,8 -25,24 -25,41 0,37 -1,68 3,113 0,4 1,8 3,11 16,44 51,72 86,92 35,20 73,34 108,52 70,35 128,74 145,173 4,23 24,40 47,40 6,0 12,-2 18,-4 57,-23 118,-50 142,-116 2,-3 3,-7 3,-11 4,-45 3,-76 3,-113 0,0 0,-1 0,-1 0,-15 -7,-30 -20,-39 0,0 -2,0 -2,0 -1,-1 -3,-2 -4,-4 -4,-6 -9,-14 -14,-24 -9,-20 -18,-44 -20,-62 -2,-20 -16,-36 -35,-42 -1,-2 -7,-11 -10,-32 -1,-7 1,-10 2,-11 12,-9 19,-23 19,-38 0,-3 -1,-7 -2,-11 -23,-91 -26,-172 -4,-222 22,-50 62,-80 163,-83 1,0 0,0 1,0 47,1 73,15 76,21 7,13 20,22 35,24 31,4 44,15 55,31 11,15 20,38 22,66 5,57 -13,129 -23,160 -2,5 -2,10 -2,15 0,14 6,28 18,37 1,1 2,4 2,11 -3,21 -9,30 -11,32 -19,6 -32,22 -34,42 -2,18 -11,42 -21,62 -4,10 -9,18 -13,24 -4,5 -8,7 0,3 -15,8 -25,24 -25,41 0,37 -1,68 3,113 0,4 1,8 3,11 16,44 51,74 84,94 34,20 68,32 99,49 62,32 106,62 113,160 0,1 0,1 0,3l0 513c-1,7 -16,71 -92,160 -73,87 -205,187 -432,254 -8,-66 -33,-120 -70,-159 -40,-41 -88,-67 -135,-87 -46,-21 -90,-37 -123,-53 -30,-16 -46,-31 -53,-46 -2,-32 -2,-57 -1,-88 1,-2 5,-5 7,-7 9,-12 16,-25 24,-40 11,-24 19,-52 25,-80 8,-6 17,-7 24,-15 16,-21 26,-48 31,-84 3,-31 -6,-55 -18,-74 14,-47 29,-115 24,-189 -4,-42 -15,-85 -42,-122 -25,-35 -65,-58 -114,-69 -36,-38 -89,-54 -148,-54 -136,2 -229,60 -268,149 -36,82 -28,181 -5,282 -13,19 -23,44 -19,77 5,36 15,65 31,86 7,8 17,7 25,13 6,28 12,58 24,81 8,15 17,29 25,40 2,3 6,4 8,6 0,31 1,56 -2,88 -7,15 -22,30 -53,46 -33,16 -78,32 -124,53 -47,20 -95,46 -135,87 -37,39 -63,93 -70,159 -227,-67 -359,-167 -432,-254 -76,-89 -91,-153 -92,-160l0 -513 0 -3c7,-98 51,-128 112,-160 31,-17 66,-29 100,-49 33,-20 68,-50 84,-94 2,-3 3,-7 3,-11 4,-45 3,-76 3,-113 0,0 0,-1 0,-1 0,-15 -8,-30 -21,-39 0,0 -1,0 -1,0 -1,-1 -2,-2 -3,-4 -4,-6 -9,-14 -14,-24 -9,-20 -18,-44 -20,-62 -2,-20 -16,-36 -34,-42 -2,-2 -8,-11 -11,-32 -1,-7 1,-10 2,-11 11,-9 18,-23 18,-37 0,-5 0,-10 -2,-15 -10,-31 -28,-103 -24,-160 3,-28 10,-51 21,-66 11,-16 25,-27 56,-31 15,-2 29,-11 36,-24 3,-6 29,-20 75,-21 1,0 1,0 2,0 101,3 141,33 163,83 22,50 19,131 -5,222 0,4 -1,8 -1,12 0,15 8,30 21,39 0,1 0,4 0,9 -3,21 -9,30 -11,32 -19,6 -32,22 -34,42 -2,18 -11,42 -21,62 -4,10 -9,18 -13,24 -4,5 -10,7 -1,3 -16,8 -25,24 -25,41 0,37 -2,68 2,113 1,4 2,8 3,11 25,66 86,93 143,116 5,2 12,4 18,4 23,0 43,-17 47,-40 17,-99 74,-138 145,-173 35,-18 74,-32 110,-52 35,-20 69,-48 85,-92 2,-3 3,-7 3,-11 4,-45 3,-76 3,-113 0,0 0,0 0,-1 0,-15 -7,-30 -20,-39 0,0 -2,0 -2,0 -1,-1 -3,-2 -4,-4 -4,-6 -9,-14 -14,-24 -9,-20 -18,-44 -20,-62 -2,-20 -16,-36 -34,-42 -2,-2 -8,-11 -11,-32 -1,-7 1,-10 2,-11 12,-9 19,-23 19,-38 0,-3 -1,-7 -2,-11 -23,-90 -26,-170 -4,-220 22,-50 62,-81 163,-83z" color="#000" enable-background="accumulate"/>
 </g>
</svg>
